<svg width="17" height="17" viewBox="0 0 17 17" fill="none" xmlns="http://www.w3.org/2000/svg">
<path d="M7.90744 8.5L6.92712 10.2006L5.94534 8.5L4.96356 6.79942L3.98178 5.10029L3.16363 3.68314C3.11415 3.59714 3.0881 3.49966 3.0881 3.40044C3.0881 3.30122 3.11415 3.20374 3.16363 3.11774L3.98178 1.69912L4.96356 0L7.90744 5.10029C7.91218 5.10659 7.91611 5.11346 7.91913 5.12075C8.2121 5.6361 8.36515 6.21913 8.3631 6.81193C8.36105 7.40473 8.20397 7.98669 7.90744 8.5Z" fill="url(#paint0_linear_9_3)"/>
<path d="M13.801 3.39971C13.9002 3.39963 13.9976 3.42571 14.0835 3.47531C14.1694 3.52491 14.2407 3.59628 14.2902 3.68222C14.3396 3.76816 14.3656 3.86564 14.3654 3.96481C14.3652 4.06398 14.3388 4.16134 14.289 4.24708L13.7966 5.10029L12.8149 6.79942L12.3225 7.65263C12.2731 7.73851 12.2019 7.80984 12.1161 7.85943C12.0303 7.90903 11.9329 7.93514 11.8338 7.93514C11.7347 7.93514 11.6374 7.90903 11.5516 7.85943C11.4658 7.80984 11.3946 7.73851 11.3451 7.65263L10.8528 6.79942L9.8666 5.10029L9.37425 4.24708C9.32469 4.16095 9.29871 4.06328 9.29892 3.96391C9.29913 3.86453 9.32553 3.76697 9.37545 3.68105C9.42537 3.59513 9.49706 3.52389 9.58329 3.4745C9.66951 3.4251 9.76723 3.39931 9.8666 3.39971H13.801Z" fill="url(#paint1_linear_9_3)"/>
<path d="M10.6892 9.91715C10.7386 10.0031 10.7647 10.1006 10.7647 10.1999C10.7647 10.2991 10.7386 10.3966 10.6892 10.4826L7.09075 16.718C7.04106 16.8038 6.96968 16.875 6.88377 16.9245C6.79787 16.974 6.70046 17 6.60132 17H3L6.92566 10.2006L7.90598 8.5C8.20251 7.98668 8.35959 7.40473 8.36165 6.81193C8.3637 6.21912 8.21064 5.6361 7.91767 5.12074L10.6892 9.91715Z" fill="#00B1E9"/>
<defs>
<linearGradient id="paint0_linear_9_3" x1="4.50919" y1="9.67901" x2="5.91904" y2="4.59479" gradientUnits="userSpaceOnUse">
<stop stop-color="white"/>
<stop offset="1" stop-color="#00B1E9"/>
</linearGradient>
<linearGradient id="paint1_linear_9_3" x1="9.30266" y1="5.66715" x2="14.3664" y2="5.66715" gradientUnits="userSpaceOnUse">
<stop stop-color="white"/>
<stop offset="0.65" stop-color="#00B1E9"/>
</linearGradient>
</defs>
</svg>
